<svg xmlns="http://www.w3.org/2000/svg" viewBox="0 0 812.88 86.85"><defs><style>.cls-1{fill:#fff;}.cls-2{fill:#9cdbf1;}</style></defs><g id="Layer_2" data-name="Layer 2"><g id="Layer_1-2" data-name="Layer 1"><path class="cls-1" d="M103.2,3.78a3.37,3.37,0,0,0-1.5-2,6.5,6.5,0,0,0-3.42-.72,7.17,7.17,0,0,0-3.36.66,3.75,3.75,0,0,0-1.68,1.74,6.52,6.52,0,0,0-.48,2.64V69.36L11.64,3.24A11.53,11.53,0,0,0,9.12,1.62a8.4,8.4,0,0,0-3.36-.54,7.56,7.56,0,0,0-3.42.66A4,4,0,0,0,.54,3.48,5.89,5.89,0,0,0,0,6.12V79.2a9.26,9.26,0,0,0,.42,2.94,3.64,3.64,0,0,0,1.56,2,6.22,6.22,0,0,0,3.3.72,6.84,6.84,0,0,0,3.48-.72,3.58,3.58,0,0,0,1.62-2,8.89,8.89,0,0,0,.42-2.82V16.8L92.16,82.68a7.92,7.92,0,0,0,2.7,1.68,9.27,9.27,0,0,0,3.06.48,6.9,6.9,0,0,0,3.42-.72,3.8,3.8,0,0,0,1.74-2,7.87,7.87,0,0,0,.48-2.82V6.6A10.31,10.31,0,0,0,103.2,3.78Z"/><path class="cls-1" d="M190.56,56.4q2.88-2.38,2.88-8.4a15,15,0,0,0-2.28-7.68,22.36,22.36,0,0,0-7-7,38.28,38.28,0,0,0-11.7-4.92,68.08,68.08,0,0,0-16.74-1.8q-14.16,0-23.4,3.78T118.62,40.68a25.08,25.08,0,0,0-4.5,14.64A29,29,0,0,0,116.46,67a25.37,25.37,0,0,0,7.38,9.54A36.4,36.4,0,0,0,136.92,83a69.76,69.76,0,0,0,19.32,2.34,103.37,103.37,0,0,0,16.8-1.2,52.51,52.51,0,0,0,11.64-3.06q4.44-1.86,5.64-3.66a3.32,3.32,0,0,0,.84-1.8,5.21,5.21,0,0,0-.84-2.76,3.06,3.06,0,0,0-1.8-1.74,7.16,7.16,0,0,0-2.4-.18,17,17,0,0,0-2.76.78L179.88,73a39,39,0,0,1-5.1,1.5,55.11,55.11,0,0,1-7.5,1.14c-3,.29-6.56.42-10.8.42a57.66,57.66,0,0,1-17.1-2.22c-4.76-1.47-8.36-3.54-10.8-6.18A12.28,12.28,0,0,1,125,58.8h58.44A10.64,10.64,0,0,0,190.56,56.4Zm-8-5a26.61,26.61,0,0,1-3.54.18H125a12.69,12.69,0,0,1,3.6-8.16c2.24-2.4,5.58-4.29,10-5.7a57.87,57.87,0,0,1,17-2.1,60.1,60.1,0,0,1,15.72,1.74q6.24,1.75,9.36,4.56a8.29,8.29,0,0,1,3.12,6.18C183.84,50.21,183.42,51.3,182.58,51.42Z"/><path class="cls-2" d="M278.82,82.4a10.22,10.22,0,0,1-2.22,2.94,4.85,4.85,0,0,1-2.34,1.44,3.33,3.33,0,0,1-2.34-.42c-.8-.44-1.8-1-3-1.86L241.86,63.78l8.46-6.47,25.8,19.75a8.49,8.49,0,0,1,2.58,2.76A2.94,2.94,0,0,1,278.82,82.4Z"/><path class="cls-2" d="M233.45,63.7,206.39,84.42a33.12,33.12,0,0,1-2.94,1.92,3,3,0,0,1-2.34.42,6.29,6.29,0,0,1-2.4-1.5,10.45,10.45,0,0,1-2.1-3,3.06,3.06,0,0,1,.06-2.58,8,8,0,0,1,2.52-2.7L225,57.23Z"/><path class="cls-2" d="M233.51,40.71l-8.46,6.48L199.13,27.34a7.11,7.11,0,0,1-2.46-2.76,3.35,3.35,0,0,1,.06-2.7,10.23,10.23,0,0,1,2.16-2.94,4.9,4.9,0,0,1,2.34-1.5,3.43,3.43,0,0,1,2.22.48,24.45,24.45,0,0,1,2.88,2Z"/><path class="cls-2" d="M278.81,24.72a8,8,0,0,1-2.52,2.7L250.37,47.27l-8.46-6.48L269.09,20a12.82,12.82,0,0,1,4.14-2.4q1.5-.36,3.3,1.44a10.82,10.82,0,0,1,2.28,3.06A3.05,3.05,0,0,1,278.81,24.72Z"/><path class="cls-1" d="M362.46,29.28a3.78,3.78,0,0,0-1.5-1.92,5.89,5.89,0,0,0-3.24-.72,6.22,6.22,0,0,0-3.3.72,4.08,4.08,0,0,0-1.62,1.86,7.35,7.35,0,0,0-.48,2.82V56a18.6,18.6,0,0,1-2.46,9.36q-2.46,4.32-8.58,7t-17.16,2.7q-10.92,0-16.86-2.64t-8.1-7A21,21,0,0,1,297,56V32.16a7.91,7.91,0,0,0-.48-2.82,4,4,0,0,0-1.56-2,8.06,8.06,0,0,0-6.66,0,3.73,3.73,0,0,0-1.56,1.86,8.3,8.3,0,0,0-.42,2.82V55.68a32.48,32.48,0,0,0,2,11.52,23.9,23.9,0,0,0,6.24,9.24,29.78,29.78,0,0,0,11.16,6.24A53.75,53.75,0,0,0,322.44,85a61.23,61.23,0,0,0,13.08-1.2,34.43,34.43,0,0,0,8.88-3.06,18.71,18.71,0,0,0,5.34-4,16.59,16.59,0,0,0,2.7-3.9l.12,6.84q.12.61.24,1.44a4.6,4.6,0,0,0,.6,1.68,3.69,3.69,0,0,0,1.44,1.38,5.72,5.72,0,0,0,2.76.54,6.68,6.68,0,0,0,3.3-.66,3.34,3.34,0,0,0,1.56-1.8,7,7,0,0,0,.42-2.46V32.16A8.84,8.84,0,0,0,362.46,29.28Z"/><path class="cls-1" d="M442.62,61.08a20.35,20.35,0,0,0-7.14-4.92A56.26,56.26,0,0,0,425.64,53q-5.4-1.18-10.92-2.16c-3.12-.48-6.26-1-9.42-1.5s-6-1.09-8.64-1.74a24.89,24.89,0,0,1-6.36-2.34q-2.46-1.36-2.46-3.42a5.11,5.11,0,0,1,2.16-4q2.16-1.72,7-2.7a70,70,0,0,1,13-1,49.2,49.2,0,0,1,10.56,1.08,48.59,48.59,0,0,1,8.7,2.7,24.52,24.52,0,0,1,6.06,3.54,3.85,3.85,0,0,0,3.18.9,4.41,4.41,0,0,0,2.82-2,5,5,0,0,0,1-3.48,4.34,4.34,0,0,0-2.1-3.12,23.85,23.85,0,0,0-4.8-2.82,56.62,56.62,0,0,0-7-2.58,76.41,76.41,0,0,0-8.64-2,59.81,59.81,0,0,0-9.78-.78,70.12,70.12,0,0,0-18.3,2c-4.76,1.32-8.26,3.21-10.5,5.64a12.17,12.17,0,0,0-3.36,8.46,10.54,10.54,0,0,0,2.52,7.2A18.83,18.83,0,0,0,387,53.7a48.71,48.71,0,0,0,9.36,3c3.44.77,7,1.46,10.56,2.1,2.56.41,5.18.78,7.86,1.14s5.24.78,7.68,1.26A48.05,48.05,0,0,1,429,62.94a16.09,16.09,0,0,1,4.56,2.34,4,4,0,0,1,1.68,3.24q0,3.86-5.76,6.06t-19.2,2.22a54.44,54.44,0,0,1-8.58-.66,51,51,0,0,1-7.74-1.8,45.52,45.52,0,0,1-6.18-2.4,26.35,26.35,0,0,1-3.9-2.22,10.59,10.59,0,0,0-3.9-2,2.85,2.85,0,0,0-3.06,1.14,6.54,6.54,0,0,0-1.56,2.4,5.48,5.48,0,0,0-.3,2.64,3.33,3.33,0,0,0,1.5,2.28A19.49,19.49,0,0,0,381,79.26a47.22,47.22,0,0,0,7.26,3.06,62.22,62.22,0,0,0,9.66,2.34,73.3,73.3,0,0,0,12,.9q18,0,26.7-4.62t8.7-12.42A10.73,10.73,0,0,0,442.62,61.08Z"/><path class="cls-1" d="M550.32,2.94a3,3,0,0,0-1.74-1.5,8.13,8.13,0,0,0-2.46-.36H459.24a7.56,7.56,0,0,0-2.4.36,3.19,3.19,0,0,0-1.74,1.5,6.44,6.44,0,0,0-.66,3.18,5.73,5.73,0,0,0,.66,3,3.46,3.46,0,0,0,1.74,1.5,6.72,6.72,0,0,0,2.52.42h38v68.4a8.3,8.3,0,0,0,.42,2.76,3.56,3.56,0,0,0,1.62,1.92,6.27,6.27,0,0,0,3.24.72,7,7,0,0,0,3.42-.66,3.68,3.68,0,0,0,1.62-1.86,7.32,7.32,0,0,0,.48-2.76V11h37.68a7.2,7.2,0,0,0,2.58-.42,3.43,3.43,0,0,0,1.8-1.5,5.73,5.73,0,0,0,.66-3A7,7,0,0,0,550.32,2.94Z"/><path class="cls-1" d="M636.6,56.4q2.88-2.38,2.88-8.4a15,15,0,0,0-2.28-7.68,22.36,22.36,0,0,0-7-7,38.28,38.28,0,0,0-11.7-4.92,68.08,68.08,0,0,0-16.74-1.8q-14.16,0-23.4,3.78T564.66,40.68a25.08,25.08,0,0,0-4.5,14.64A29,29,0,0,0,562.5,67a25.37,25.37,0,0,0,7.38,9.54A36.4,36.4,0,0,0,583,83a69.76,69.76,0,0,0,19.32,2.34,103.37,103.37,0,0,0,16.8-1.2,52.51,52.51,0,0,0,11.64-3.06q4.44-1.86,5.64-3.66a3.32,3.32,0,0,0,.84-1.8,5.21,5.21,0,0,0-.84-2.76,3.06,3.06,0,0,0-1.8-1.74,7.16,7.16,0,0,0-2.4-.18,17,17,0,0,0-2.76.78L625.92,73a39,39,0,0,1-5.1,1.5,55.11,55.11,0,0,1-7.5,1.14c-3,.29-6.56.42-10.8.42a57.66,57.66,0,0,1-17.1-2.22c-4.76-1.47-8.36-3.54-10.8-6.18a12.28,12.28,0,0,1-3.54-8.88h58.44A10.64,10.64,0,0,0,636.6,56.4Zm-8-5a26.61,26.61,0,0,1-3.54.18h-54a12.69,12.69,0,0,1,3.6-8.16c2.24-2.4,5.58-4.29,10-5.7a57.87,57.87,0,0,1,17-2.1,60.1,60.1,0,0,1,15.72,1.74q6.24,1.75,9.36,4.56a8.29,8.29,0,0,1,3.12,6.18C629.88,50.21,629.46,51.3,628.62,51.42Z"/><path class="cls-1" d="M725,71.88a4.91,4.91,0,0,0-1-2.28,9.48,9.48,0,0,0-2.28-2.4,3.72,3.72,0,0,0-2-.72,3.49,3.49,0,0,0-2,.6q-.84.61-2,1.44a22.3,22.3,0,0,1-5.64,3.18,43.39,43.39,0,0,1-8.64,2.46,59.7,59.7,0,0,1-11.28,1q-10.56,0-17.46-2.52t-10.2-6.84a16.65,16.65,0,0,1,.06-20q3.36-4.37,10.26-6.84t17.58-2.46a50.65,50.65,0,0,1,9,.72,38.39,38.39,0,0,1,7.26,2A57.4,57.4,0,0,1,712.44,42a37.48,37.48,0,0,1,4.68,3,3.64,3.64,0,0,0,4.32-.48,5.74,5.74,0,0,0,1.74-1.32,7.32,7.32,0,0,0,1.26-1.8,2.78,2.78,0,0,0,0-2.52,10.36,10.36,0,0,0-2-2.4,19.78,19.78,0,0,0-6.72-4.8A51,51,0,0,0,704.46,28a66.12,66.12,0,0,0-14.22-1.44,70.84,70.84,0,0,0-17.76,2,41.21,41.21,0,0,0-13.26,5.88,26.3,26.3,0,0,0-8.28,9.18,25.71,25.71,0,0,0-2.82,12.18A25.22,25.22,0,0,0,651,68a26.62,26.62,0,0,0,8.34,9.18A40.37,40.37,0,0,0,672.6,83a70.92,70.92,0,0,0,17.88,2A71.87,71.87,0,0,0,704,83.88a56.77,56.77,0,0,0,11-3.18,29.38,29.38,0,0,0,7.68-4.38,5.84,5.84,0,0,0,1.92-2.16A4,4,0,0,0,725,71.88Z"/><path class="cls-1" d="M809,40.38a26.18,26.18,0,0,0-11.88-10.14q-8-3.7-20.76-3.72-11.52,0-18.72,3.12t-10.2,6.6V5.52a13.23,13.23,0,0,0-.3-3A3,3,0,0,0,745.74.66a9.66,9.66,0,0,0-7,0,3.15,3.15,0,0,0-1.56,1.86,10.2,10.2,0,0,0-.36,2.88V79.32a12.73,12.73,0,0,0,.3,2.94,2.86,2.86,0,0,0,1.5,1.92,9.66,9.66,0,0,0,7,0,3.13,3.13,0,0,0,1.5-1.86,10,10,0,0,0,.36-2.88V48.6q1.32-5.4,8.64-8.82t19.32-3.42q10.68,0,16.5,2.52c3.88,1.68,6.55,3.95,8,6.78a20.13,20.13,0,0,1,2.22,9.42V79.32a10.7,10.7,0,0,0,.36,2.94,3.1,3.1,0,0,0,1.56,1.92,7.34,7.34,0,0,0,3.48.66,6.94,6.94,0,0,0,3.48-.66,3.19,3.19,0,0,0,1.44-1.86,10,10,0,0,0,.36-2.88V55.2A28.36,28.36,0,0,0,809,40.38Z"/></g></g></svg>